<?xml version="1.0" standalone="no"?>
<!DOCTYPE svg PUBLIC "-//W3C//DTD SVG 20010904//EN"
 "http://www.w3.org/TR/2001/REC-SVG-20010904/DTD/svg10.dtd">
<svg version="1.0" xmlns="http://www.w3.org/2000/svg"
 width="512.000000pt" height="512.000000pt" viewBox="0 0 512.000000 512.000000"
 preserveAspectRatio="xMidYMid meet">
<metadata>
Created by potrace 1.11, written by Peter Selinger 2001-2013
</metadata>
<g transform="translate(0.000000,512.000000) scale(0.100000,-0.100000)"
fill="#000000" stroke="none">
<path d="M2320 5109 c-491 -47 -981 -246 -1366 -557 -599 -482 -954 -1224
-954 -1992 0 -577 204 -1155 568 -1606 482 -599 1224 -954 1992 -954 577 0
1155 204 1606 568 599 482 954 1224 954 1992 0 577 -204 1155 -568 1606 -433
538 -1071 879 -1767 944 -125 11 -340 11 -465 -1z m548 -1039 c437 -46 705
-212 778 -481 43 -158 25 -347 -48 -499 -33 -70 -56 -100 -127 -170 -70 -70
-104 -95 -187 -137 -55 -28 -126 -56 -157 -63 -31 -7 -54 -16 -52 -20 2 -4 30
-10 62 -14 32 -4 103 -22 160 -41 247 -83 399 -196 478 -358 49 -101 66 -174
72 -309 12 -256 -52 -441 -211 -607 -155 -160 -337 -254 -612 -313 -95 -20
-128 -21 -884 -25 -782 -4 -785 -4 -807 16 -28 27 -46 91 -34 123 14 36 30 45
101 53 168 17 263 42 310 82 l30 25 0 1202 0 1203 -23 34 c-33 50 -112 88
-215 105 -48 8 -105 14 -127 14 -53 0 -87 19 -96 53 -9 34 6 92 32 118 18 18
40 19 742 19 397 0 764 -5 815 -10z"/>
<path d="M2180 3340 l0 -562 258 5 c293 5 345 15 489 87 90 46 175 125 212
199 55 107 78 310 50 443 -28 134 -120 251 -241 308 -134 63 -196 72 -495 78
l-273 4 0 -562z"/>
<path d="M2180 1948 c0 -715 -10 -646 100 -673 93 -21 326 -30 435 -16 288 38
503 153 583 313 53 104 72 201 72 358 0 292 -87 453 -303 560 -125 62 -190 71
-564 77 l-323 5 0 -624z"/>
</g>
</svg>
